<?xml version="1.0" encoding="iso-8859-1"?>
<!-- Uploaded to: SVG Repo, www.svgrepo.com, Generator: SVG Repo Mixer Tools -->
<svg height="800px" width="800px" version="1.1" id="Layer_1" xmlns="http://www.w3.org/2000/svg" xmlns:xlink="http://www.w3.org/1999/xlink" 
	 viewBox="0 0 512.001 512.001" xml:space="preserve">
<path style="fill:#FFFFFF;" d="M256,507.632c-19.36-8.912-205.336-97.792-205.336-219.633V68.512
	c5.416,0.544,15.36,1.312,28.44,1.312C121.672,69.832,200.601,61.415,256,5.76c55.4,55.656,134.328,64.072,176.896,64.072
	c13.08,0,23.024-0.8,28.44-1.312v219.48C461.336,409.888,275.36,498.728,256,507.632z"/>
<path style="fill:#939393;" d="M256,11.368c56.24,54.168,134.4,62.464,176.896,62.464c10.24,0,18.616-0.472,24.44-0.936V288
	c0,116.496-175.2,202.976-201.336,215.2C229.904,491.009,54.664,404.608,54.664,288V72.888c5.824,0.472,14.192,0.936,24.44,0.936
	C121.6,73.832,199.76,65.544,256,11.368 M256,0C201.808,56.968,122.936,65.832,79.104,65.832C68.263,65.916,57.427,65.304,46.664,64
	V288c0,132,209.337,224.001,209.337,224.001s209.337-92,209.337-224.001V64c-10.764,1.296-21.599,1.899-32.44,1.808
	C389.064,65.832,310.192,56.976,256,0z"/>
<path style="fill:#E21B1B;" d="M327.12,342.472c-15.157,8.593-32.296,13.075-49.72,13c-28.339,0.789-55.45-11.57-73.44-33.48
	c-11.33-13.84-18.44-30.647-20.48-48.416h-20.8V253.76h18.2v-5.2c0-3.896,0.328-8.128,0.656-11.696h-18.848v-20.152h21.776
	c3.327-18.323,11.763-35.334,24.336-49.072c17.797-19.967,43.452-31.128,70.192-30.536c16.058-0.121,31.942,3.327,46.504,10.096
	l-8.128,30.216c-11.266-5.772-23.741-8.788-36.4-8.8c-15.714-0.401-30.807,6.136-41.264,17.872
	c-7.42,8.587-12.362,19.033-14.296,30.216h85.128v20.152h-89.032c-0.555,3.765-0.775,7.572-0.656,11.376v5.52h89.688v19.848h-86.104
	c1.431,11.754,6.289,22.828,13.968,31.84c11.365,11.766,27.197,18.145,43.544,17.544c13.375-0.156,26.52-3.499,38.344-9.752
	L327.12,342.472z"/>
</svg>