<?xml version="1.0" encoding="iso-8859-1"?>
<!-- Uploaded to: SVG Repo, www.svgrepo.com, Generator: SVG Repo Mixer Tools -->
<svg height="800px" width="800px" version="1.1" id="Layer_1" xmlns="http://www.w3.org/2000/svg" xmlns:xlink="http://www.w3.org/1999/xlink" 
	 viewBox="0 0 512 512" xml:space="preserve">
<g>
	<path style="fill:#333333;" d="M294.395,511.983c0,0-38.766-75.63,35.783-127.996s95.453-81.429,95.453-81.429
		s41.743-11.632,23.855,23.271c-12.001,22.281-28.2,42.03-47.702,58.158c0,0,56.654-11.632,71.565-58.174
		c14.911-46.543,0-72.718,35.783-81.445c0,0,17.887,87.261-35.783,139.62c-53.67,52.359-116.293,72.718-119.276,127.996
		L294.395,511.983L294.395,511.983z"/>
	<path style="fill:#333333;" d="M217.597,511.983c0,0,38.766-75.63-35.783-127.996s-95.453-81.429-95.453-81.429
		s-41.75-11.64-23.855,23.271c12.001,22.281,28.2,42.03,47.702,58.158c0,0-56.654-11.623-71.557-58.158s0-72.718-35.783-81.445
		c0,0-17.887,87.261,35.783,139.62S154.944,456.722,157.928,512L217.597,511.983z"/>
</g>
<circle style="fill:#E21B1B;" cx="255.998" cy="159.659" r="159.659"/>
<path style="fill:#FFFFFF;" d="M310.971,228.377c-11.951,6.77-25.464,10.298-39.199,10.232
	c-22.319,0.625-43.674-9.106-57.846-26.359c-8.929-10.904-14.53-24.149-16.135-38.151h-16.343v-15.607h14.336v-4.096
	c0-3.08,0.256-6.4,0.512-9.216h-14.847v-15.872h17.159c2.63-14.434,9.286-27.831,19.2-38.647
	c14.012-15.735,34.222-24.531,55.286-24.063c12.639-0.099,25.143,2.612,36.607,7.936l-6.4,23.807
	c-8.875-4.543-18.702-6.911-28.671-6.911c-12.378-0.314-24.266,4.835-32.503,14.079c-5.845,6.767-9.739,14.997-11.264,23.807h67.054
	v15.872h-70.134c-0.434,2.965-0.606,5.964-0.512,8.959v4.352h70.646v15.607h-67.83c1.126,9.262,4.955,17.987,11.008,25.087
	c8.95,9.269,21.418,14.296,34.295,13.824c10.537-0.122,20.892-2.755,30.207-7.68L310.971,228.377z"/>
</svg>